<svg width="570" height="216" viewBox="0 0 570 216" fill="none" xmlns="http://www.w3.org/2000/svg">
<rect y="156" width="570" height="60" rx="6" fill="#002858"/>
<g clip-path="url(#clip0_683_5993)">
<path d="M121.108 41.3275H83.2266V3.69186C83.2162 2.71171 82.8178 1.77507 82.1176 1.08483C81.7752 0.739452 81.3668 0.465572 80.9164 0.279282C80.466 0.0929925 79.9826 -0.00195056 79.4948 3.03707e-05H41.5957C41.6116 21.9212 50.3802 42.9398 65.9757 58.4394C73.7015 66.1177 82.8732 72.2081 92.9671 76.3631C103.061 80.518 113.879 82.656 124.805 82.655V45.0194C124.8 44.0416 124.407 43.1053 123.712 42.4139C123.016 41.7226 122.074 41.3321 121.09 41.3275" fill="#FF4900"/>
<path d="M3.71432 41.3276C3.22677 41.3276 2.74402 41.4234 2.29388 41.6096C1.84374 41.7958 1.4351 42.0686 1.09149 42.4124C0.744014 42.7528 0.468473 43.1588 0.281053 43.6065C0.0936341 44.0542 -0.00188471 44.5346 0.00010823 45.0195V78.9633C-0.00368255 79.4498 0.0921429 79.932 0.281755 80.3805C0.470285 80.8262 0.745454 81.2306 1.09149 81.5703C1.4302 81.918 1.83779 82.1921 2.28849 82.3752C2.74031 82.5618 3.22504 82.657 3.71432 82.6551H41.6134V120.291C41.6134 121.272 42.0041 122.212 42.7002 122.908C43.3962 123.603 44.3409 123.996 45.3276 124H83.2267V114.989C83.2267 75.9889 55.995 76.0238 41.6134 41.3276H3.71432Z" fill="#002858"/>
<path d="M201.289 72.192H194.107C192.549 72.194 191.014 71.8114 189.641 71.0785C188.267 70.3456 187.098 69.2853 186.239 67.9928L161.278 30.5146V72.192H148.956V11.373H156.842C158.201 11.3805 159.538 11.7194 160.735 12.36C161.932 13.0007 162.953 13.9234 163.707 15.0474L189.003 53.138V11.373H201.325L201.289 72.192Z" fill="#002858"/>
<path d="M255.858 51.738H220.406C220.524 54.8371 221.842 57.771 224.085 59.9265C226.256 61.9042 229.116 62.9647 232.059 62.8835C234.081 63.0006 236.092 62.5068 237.826 61.4668C239.56 60.4269 240.937 58.8896 241.776 57.0571H254.996C253.624 61.6375 250.795 65.6526 246.934 68.5C242.713 71.5651 237.583 73.1415 232.358 72.9792C227.975 73.05 223.649 71.9826 219.807 69.8822C216.127 67.8581 213.114 64.8202 211.129 61.1338C209.008 57.1112 207.943 52.6218 208.031 48.0812C207.926 43.5379 208.96 39.04 211.041 34.9936C212.976 31.3068 215.957 28.2651 219.614 26.2452C223.527 24.1548 227.917 23.106 232.358 23.2007C236.659 23.1646 240.898 24.212 244.68 26.2452C248.271 28.1699 251.224 31.0868 253.183 34.6436C255.243 38.4839 256.279 42.7849 256.193 47.1364C256.212 48.6769 256.1 50.2163 255.858 51.738V51.738ZM243.536 43.567C243.564 42.1397 243.272 40.7241 242.681 39.4228C242.091 38.1215 241.216 36.9672 240.121 36.0434C237.845 34.1436 234.942 33.1466 231.971 33.2439C229.155 33.1589 226.411 34.1408 224.296 35.9909C222.145 37.988 220.795 40.6917 220.494 43.602L243.536 43.567Z" fill="#002858"/>
<path d="M330.583 23.9881L316.412 72.1919H303.193L294.391 38.5105L285.59 72.1919H272.282L258.006 23.9881H264.625C266.28 23.9827 267.888 24.5377 269.184 25.5618C270.48 26.5858 271.386 28.0178 271.754 29.6221L279.024 60.714L288.301 23.9706H301.274L310.375 60.5915L317.627 29.5696C318.004 27.9716 318.914 26.5471 320.208 25.5276C321.502 24.508 323.105 23.9532 324.756 23.9531L330.583 23.9881Z" fill="#002858"/>
<path d="M333.663 34.9938C335.59 31.3304 338.535 28.294 342.148 26.2454C345.941 24.1374 350.23 23.0686 354.575 23.1484C359.915 22.9385 365.172 24.5157 369.503 27.6276C373.542 30.7712 376.345 35.2227 377.424 40.2078H364.204C363.594 38.235 362.359 36.5107 360.684 35.2912C358.863 34.0703 356.699 33.4574 354.505 33.5416C352.919 33.4784 351.34 33.7877 349.896 34.4444C348.453 35.101 347.185 36.0864 346.196 37.3209C343.969 40.4547 342.888 44.2521 343.134 48.0814C342.898 51.877 343.979 55.638 346.196 58.737C347.185 59.9714 348.453 60.9569 349.896 61.6135C351.34 62.2701 352.919 62.5794 354.505 62.5163C356.63 62.6996 358.753 62.1511 360.519 60.9628C362.285 59.7745 363.586 58.0188 364.204 55.99H377.424C376.279 60.918 373.471 65.308 369.467 68.4302C365.177 71.6106 359.924 73.2401 354.575 73.0494C350.23 73.1292 345.941 72.0605 342.148 69.9525C338.535 67.9038 335.59 64.8674 333.663 61.204C331.536 57.1718 330.476 52.668 330.583 48.1164C330.471 43.5531 331.531 39.0367 333.663 34.9938V34.9938Z" fill="#002858"/>
<path d="M401.346 25.4581C404.034 23.9692 407.072 23.2203 410.148 23.2885V36.0786H406.909C403.772 35.8541 400.666 36.8166 398.213 38.7731C396.242 40.5228 395.273 43.7072 395.273 48.1689V72.1921H382.951V23.9883H387.898C389.835 23.9883 391.693 24.7533 393.063 26.1151C394.433 27.4768 395.203 29.3237 395.203 31.2495V31.4945C396.698 28.9932 398.813 26.9148 401.346 25.4581Z" fill="#002858"/>
<path d="M424.107 69.8824C420.395 67.8587 417.341 64.8236 415.305 61.134C413.116 57.1331 412.012 52.6348 412.102 48.0814C412.013 43.5016 413.162 38.9821 415.429 34.9937C417.532 31.2947 420.644 28.262 424.406 26.2453C428.324 24.2109 432.678 23.1484 437.098 23.1484C441.518 23.1484 445.872 24.2109 449.79 26.2453C453.545 28.2712 456.655 31.3017 458.767 34.9937C461.004 38.9853 462.134 43.4958 462.041 48.0639C462.141 52.6816 460.966 57.2382 458.644 61.239C456.48 64.9334 453.33 67.961 449.543 69.9874C445.597 72.0791 441.182 73.1444 436.711 73.0843C432.301 73.1185 427.959 72.0153 424.107 69.8824V69.8824ZM442.96 60.7491C444.96 59.6525 446.594 57.9981 447.66 55.9899C448.89 53.5685 449.495 50.8807 449.42 48.1688C449.65 44.3313 448.347 40.5587 445.794 37.6708C444.651 36.476 443.27 35.5307 441.74 34.8951C440.209 34.2595 438.563 33.9475 436.904 33.9789C435.258 33.9413 433.623 34.2508 432.105 34.8872C430.588 35.5235 429.224 36.4722 428.103 37.6708C425.606 40.5852 424.344 44.3484 424.582 48.1688C424.364 51.9866 425.624 55.7426 428.103 58.6669C429.213 59.88 430.575 60.8386 432.095 61.4761C433.614 62.1136 435.256 62.4148 436.904 62.3588C439.027 62.3384 441.11 61.7846 442.96 60.7491V60.7491Z" fill="#002858"/>
<path d="M475.877 70.8447C472.924 69.5861 470.347 67.5913 468.396 65.0533C466.589 62.7241 465.534 59.9062 465.368 56.9697H473.518C474.519 56.9476 475.51 57.1784 476.396 57.6405C477.283 58.1026 478.037 58.7809 478.588 59.6118C479.042 60.3716 479.64 61.037 480.348 61.5714C482.084 62.8384 484.199 63.4857 486.351 63.4086C488.272 63.5169 490.179 63.0277 491.808 62.0088C492.404 61.6353 492.897 61.1194 493.241 60.5082C493.585 59.897 493.771 59.2099 493.779 58.5094C493.78 57.7548 493.551 57.0175 493.124 56.3934C492.697 55.7694 492.092 55.2874 491.385 55.0101C488.909 53.9274 486.341 53.0667 483.711 52.4381C480.716 51.7474 477.775 50.847 474.909 49.7435C472.603 48.8189 470.556 47.3543 468.942 45.4743C467.178 43.2584 466.301 40.4731 466.477 37.6532C466.462 35.0363 467.268 32.4797 468.783 30.3396C470.471 28.0129 472.774 26.1961 475.437 25.0905C478.671 23.7591 482.148 23.1096 485.647 23.1834C490.628 22.9277 495.537 24.4547 499.483 27.4876C501.199 28.924 502.595 30.701 503.58 32.7046C504.565 34.7083 505.118 36.8944 505.204 39.123H498.251C497.063 39.0852 495.901 38.7653 494.863 38.19C493.825 37.6147 492.94 36.8007 492.283 35.8161C491.934 35.3461 491.526 34.9227 491.069 34.5563C489.46 33.5343 487.609 32.9524 485.702 32.8695C483.795 32.7865 481.9 33.2054 480.208 34.0839C479.644 34.4498 479.185 34.955 478.876 35.55C478.568 36.145 478.42 36.8094 478.447 37.4783C478.441 38.2654 478.67 39.0365 479.106 39.6938C479.542 40.3512 480.164 40.865 480.894 41.1701C483.326 42.2882 485.869 43.1503 488.481 43.7421C491.427 44.4391 494.321 45.3394 497.142 46.4366C499.437 47.3694 501.468 48.8472 503.056 50.7409C504.804 52.9241 505.72 55.6504 505.644 58.4395C505.68 61.1164 504.867 63.7366 503.32 65.9281C501.646 68.2678 499.339 70.0878 496.666 71.1772C493.463 72.4819 490.024 73.1191 486.562 73.0493C482.883 73.0854 479.238 72.3335 475.877 70.8447V70.8447Z" fill="#002858"/>
<path d="M520.096 70.8446C517.137 69.5865 514.554 67.5919 512.597 65.0532C510.802 62.7188 509.754 59.9029 509.587 56.9697H517.79C518.786 56.947 519.772 57.1759 520.656 57.6348C521.539 58.0938 522.291 58.7679 522.842 59.5942C523.328 60.3625 523.955 61.0332 524.69 61.5713C526.419 62.8382 528.528 63.4858 530.675 63.4085C532.602 63.5182 534.515 63.029 536.149 62.0087C536.746 61.6352 537.238 61.1193 537.583 60.5081C537.927 59.8969 538.112 59.2098 538.121 58.5094C538.117 57.7532 537.886 57.0155 537.456 56.3917C537.026 55.7679 536.417 55.2866 535.709 55.01C533.255 53.896 530.704 53.0058 528.087 52.3505C525.064 51.6601 522.094 50.7597 519.198 49.656C516.897 48.7314 514.855 47.2665 513.248 45.3868C511.493 43.1987 510.604 40.4479 510.748 37.6532C510.731 35.0332 511.544 32.4744 513.072 30.3395C514.76 28.0128 517.063 26.196 519.726 25.0904C522.959 23.7575 526.436 23.108 529.936 23.1833C534.912 22.9256 539.816 24.453 543.754 27.4875C545.467 28.9221 546.859 30.6967 547.841 32.6974C548.823 34.6981 549.374 36.8808 549.457 39.1054H542.504C541.316 39.0676 540.155 38.7477 539.116 38.1724C538.078 37.5971 537.194 36.7831 536.537 35.7985C536.181 35.3288 535.767 34.9055 535.305 34.5387C533.662 33.3091 531.638 32.69 529.584 32.789C527.791 32.6778 526.007 33.1045 524.461 34.0138C523.897 34.3798 523.439 34.885 523.13 35.4799C522.821 36.0749 522.674 36.7394 522.701 37.4082C522.695 38.1953 522.924 38.9665 523.36 39.6238C523.795 40.2811 524.418 40.7949 525.148 41.1C527.565 42.2399 530.096 43.1254 532.699 43.7421C535.646 44.439 538.54 45.3393 541.36 46.4366C543.651 47.3785 545.679 48.8549 547.275 50.7408C549.014 52.9283 549.93 55.6517 549.862 58.4394C549.899 61.1163 549.086 63.7365 547.539 65.928C545.864 68.2677 543.557 70.0877 540.885 71.1771C537.675 72.4832 534.23 73.1205 530.763 73.0492C527.089 73.0839 523.451 72.332 520.096 70.8446Z" fill="#002858"/>
<path d="M167.368 83.6523H172.104V112.382H167.368V99.7319H153.761V112.435H149.026V83.6523H153.761V96.0576H167.368V83.6523Z" fill="#002858"/>
<path d="M197.646 83.5996V87.2914H186.415V96.0398H196.396V99.7317H186.415V108.795H197.646V112.469H181.68V83.5996H197.646Z" fill="#002858"/>
<path d="M226.303 112.382L224.226 106.503H212.115L210.038 112.382H205.092L215.442 83.5996H220.934L231.285 112.382H226.303ZM213.4 102.829H222.941L218.276 89.2336L213.4 102.829Z" fill="#002858"/>
<path d="M239.118 83.6523H243.853V108.778H253.623V112.382H239.118V83.6523Z" fill="#002858"/>
<path d="M259.414 87.3267V83.6523H279.569V87.3267H271.877V112.382H267.142V87.3267H259.414Z" fill="#002858"/>
<path d="M306.027 83.6523H310.762V112.382H306.027V99.7319H292.437V112.435H287.684V83.6523H292.437V96.0576H306.027V83.6523Z" fill="#002858"/>
<path d="M323.031 108.48C320.307 105.656 318.786 101.895 318.786 97.9822C318.786 94.0697 320.307 90.3084 323.031 87.4841C324.419 86.1192 326.07 85.0468 327.885 84.3313C329.699 83.6157 331.641 83.2717 333.593 83.3199C336.489 83.2691 339.338 84.053 341.796 85.577C344.219 87.066 346.076 89.3122 347.077 91.9633H341.373C340.652 90.5693 339.536 89.4156 338.163 88.6446C336.789 87.8735 335.219 87.5188 333.646 87.6241C332.323 87.5779 331.005 87.8078 329.777 88.299C328.549 88.7902 327.438 89.5319 326.516 90.4761C324.73 92.591 323.75 95.2643 323.75 98.026C323.75 100.788 324.73 103.461 326.516 105.576C327.438 106.52 328.549 107.262 329.777 107.753C331.005 108.244 332.323 108.474 333.646 108.428C335.219 108.533 336.789 108.178 338.163 107.407C339.536 106.636 340.652 105.483 341.373 104.089H347.077C346.08 106.733 344.221 108.969 341.796 110.44C339.333 111.95 336.486 112.728 333.593 112.68C331.639 112.721 329.696 112.371 327.882 111.649C326.067 110.928 324.417 109.85 323.031 108.48Z" fill="#002858"/>
<path d="M373.182 112.382L371.105 106.503H359.1L357.005 112.382H352.058L362.409 83.5996H367.901L378.269 112.382H373.182ZM360.296 102.829H369.82L365.12 89.2336L360.296 102.829Z" fill="#002858"/>
<path d="M390.785 100.729V112.382H386.05V83.6525H396.066C398.805 83.4759 401.51 84.3388 403.635 86.067C404.501 86.8364 405.188 87.7847 405.647 88.8455C406.106 89.9064 406.327 91.0541 406.293 92.2084C406.341 94.2249 405.63 96.1864 404.298 97.708C402.966 99.2295 401.109 100.201 399.093 100.432L406.751 112.382H400.977L393.742 100.729H390.785ZM390.785 87.3268V97.0376H396.066C397.526 97.1543 398.974 96.6955 400.097 95.7603C400.96 94.7658 401.435 93.4959 401.435 92.1822C401.435 90.8685 400.96 89.5986 400.097 88.6041C398.974 87.6689 397.526 87.2101 396.066 87.3268H390.785Z" fill="#002858"/>
<path d="M431.623 83.5996V87.2914H420.393V96.0398H430.374V99.7317H420.393V108.795H431.623V112.469H415.658V83.5996H431.623Z" fill="#002858"/>
<path d="M570 30.6894C570.041 32.1393 569.649 33.5688 568.873 34.7969C568.096 36.0251 566.971 36.9968 565.639 37.589C564.307 38.1812 562.828 38.3674 561.389 38.1239C559.951 37.8804 558.617 37.2182 557.557 36.2211C556.497 35.224 555.759 33.9369 555.435 32.5225C555.112 31.1081 555.217 29.6301 555.739 28.2755C556.261 26.9209 557.175 25.7506 558.366 24.9127C559.558 24.0747 560.972 23.6068 562.431 23.5682H562.66C563.604 23.5473 564.544 23.7119 565.424 24.0525C566.305 24.3932 567.109 24.9032 567.791 25.5534C568.473 26.2035 569.019 26.981 569.398 27.8414C569.777 28.7017 569.982 29.6279 570 30.5669V30.6894ZM557.115 30.6894C557.091 31.4147 557.212 32.1374 557.47 32.8162C557.729 33.495 558.119 34.1163 558.62 34.6447C559.12 35.173 559.721 35.5979 560.387 35.895C561.053 36.1921 561.771 36.3555 562.501 36.3758H562.695C563.43 36.3739 564.157 36.2254 564.833 35.9391C565.509 35.6528 566.12 35.2347 566.63 34.7093C567.141 34.184 567.54 33.5621 567.805 32.8806C568.069 32.1992 568.193 31.4719 568.169 30.7419C568.181 30.0204 568.049 29.3037 567.782 28.6327C567.515 27.9618 567.118 27.3497 566.613 26.8314C566.108 26.3131 565.505 25.8988 564.839 25.6121C564.172 25.3254 563.456 25.1719 562.73 25.1604C562.004 25.1489 561.283 25.2796 560.608 25.5451C559.933 25.8106 559.317 26.2056 558.796 26.7077C558.274 27.2097 557.858 27.8089 557.569 28.4711C557.281 29.1333 557.126 29.8454 557.115 30.5669V30.6894ZM561.533 34.4337H559.861V27.3125C560.771 27.1406 561.698 27.0643 562.624 27.085C563.485 27.0211 564.346 27.2032 565.106 27.6099C565.333 27.8007 565.514 28.0396 565.636 28.3091C565.758 28.5786 565.818 28.8718 565.811 29.1672C565.791 29.5709 565.631 29.9554 565.358 30.2552C565.085 30.555 564.716 30.7517 564.314 30.8119V30.9168C564.676 31.0581 564.991 31.2965 565.224 31.6055C565.457 31.9145 565.599 32.2819 565.635 32.6665C565.709 33.2754 565.887 33.8672 566.163 34.4162H564.402C564.12 33.8672 563.93 33.2762 563.839 32.6665C563.698 31.8967 563.258 31.5467 562.343 31.5467H561.533V34.4337ZM561.533 30.3919H562.325C563.241 30.3919 563.98 30.077 563.98 29.3421C563.98 28.6073 563.487 28.2573 562.448 28.2573C562.141 28.2509 561.834 28.2803 561.533 28.3448V30.3919Z" fill="#002858"/>
</g>
<path d="M106.165 175.756V196H102.385V187.152H92.8793V196H89.0993V175.756H92.8793V184.464H102.385V175.756H106.165ZM126.97 188.356L124.506 181.622C124.384 181.323 124.258 180.969 124.128 180.558C123.997 180.147 123.866 179.704 123.736 179.228C123.614 179.704 123.488 180.152 123.358 180.572C123.227 180.983 123.101 181.342 122.98 181.65L120.53 188.356H126.97ZM133.62 196H130.708C130.381 196 130.115 195.921 129.91 195.762C129.704 195.594 129.55 195.389 129.448 195.146L127.936 191.016H119.55L118.038 195.146C117.963 195.361 117.818 195.557 117.604 195.734C117.389 195.911 117.123 196 116.806 196H113.866L121.832 175.756H125.668L133.62 196ZM153.173 192.892V196H141.315V175.756H145.081V192.892H153.173ZM180.057 185.878C180.057 187.362 179.81 188.739 179.315 190.008C178.83 191.268 178.139 192.36 177.243 193.284C176.347 194.208 175.269 194.931 174.009 195.454C172.749 195.967 171.349 196.224 169.809 196.224C168.278 196.224 166.883 195.967 165.623 195.454C164.363 194.931 163.28 194.208 162.375 193.284C161.479 192.36 160.784 191.268 160.289 190.008C159.794 188.739 159.547 187.362 159.547 185.878C159.547 184.394 159.794 183.022 160.289 181.762C160.784 180.493 161.479 179.396 162.375 178.472C163.28 177.548 164.363 176.829 165.623 176.316C166.883 175.793 168.278 175.532 169.809 175.532C170.836 175.532 171.802 175.653 172.707 175.896C173.612 176.129 174.443 176.465 175.199 176.904C175.955 177.333 176.632 177.861 177.229 178.486C177.836 179.102 178.349 179.793 178.769 180.558C179.189 181.323 179.506 182.154 179.721 183.05C179.945 183.946 180.057 184.889 180.057 185.878ZM176.207 185.878C176.207 184.767 176.058 183.773 175.759 182.896C175.46 182.009 175.036 181.258 174.485 180.642C173.934 180.026 173.262 179.555 172.469 179.228C171.685 178.901 170.798 178.738 169.809 178.738C168.82 178.738 167.928 178.901 167.135 179.228C166.351 179.555 165.679 180.026 165.119 180.642C164.568 181.258 164.144 182.009 163.845 182.896C163.546 183.773 163.397 184.767 163.397 185.878C163.397 186.989 163.546 187.987 163.845 188.874C164.144 189.751 164.568 190.498 165.119 191.114C165.679 191.721 166.351 192.187 167.135 192.514C167.928 192.841 168.82 193.004 169.809 193.004C170.798 193.004 171.685 192.841 172.469 192.514C173.262 192.187 173.934 191.721 174.485 191.114C175.036 190.498 175.46 189.751 175.759 188.874C176.058 187.987 176.207 186.989 176.207 185.878ZM219.349 185.878C219.349 187.362 219.101 188.725 218.607 189.966C218.112 191.207 217.417 192.276 216.521 193.172C215.625 194.068 214.547 194.763 213.287 195.258C212.027 195.753 210.627 196 209.087 196H201.373V175.756H209.087C210.627 175.756 212.027 176.008 213.287 176.512C214.547 177.007 215.625 177.702 216.521 178.598C217.417 179.485 218.112 180.549 218.607 181.79C219.101 183.031 219.349 184.394 219.349 185.878ZM215.485 185.878C215.485 184.767 215.335 183.773 215.037 182.896C214.747 182.009 214.323 181.263 213.763 180.656C213.212 180.04 212.54 179.569 211.747 179.242C210.963 178.915 210.076 178.752 209.087 178.752H205.153V193.004H209.087C210.076 193.004 210.963 192.841 211.747 192.514C212.54 192.187 213.212 191.721 213.763 191.114C214.323 190.498 214.747 189.751 215.037 188.874C215.335 187.987 215.485 186.989 215.485 185.878ZM232.054 178.752V184.366H239.138V187.264H232.054V192.99H241.042V196H228.274V175.756H241.042V178.752H232.054ZM260.759 179.438C260.647 179.634 260.526 179.779 260.395 179.872C260.274 179.956 260.12 179.998 259.933 179.998C259.737 179.998 259.522 179.928 259.289 179.788C259.065 179.639 258.794 179.475 258.477 179.298C258.16 179.121 257.786 178.962 257.357 178.822C256.937 178.673 256.438 178.598 255.859 178.598C255.336 178.598 254.879 178.663 254.487 178.794C254.095 178.915 253.764 179.088 253.493 179.312C253.232 179.536 253.036 179.807 252.905 180.124C252.774 180.432 252.709 180.773 252.709 181.146C252.709 181.622 252.84 182.019 253.101 182.336C253.372 182.653 253.726 182.924 254.165 183.148C254.604 183.372 255.103 183.573 255.663 183.75C256.223 183.927 256.797 184.119 257.385 184.324C257.973 184.52 258.547 184.753 259.107 185.024C259.667 185.285 260.166 185.621 260.605 186.032C261.044 186.433 261.394 186.928 261.655 187.516C261.926 188.104 262.061 188.818 262.061 189.658C262.061 190.573 261.902 191.431 261.585 192.234C261.277 193.027 260.82 193.723 260.213 194.32C259.616 194.908 258.883 195.375 258.015 195.72C257.147 196.056 256.153 196.224 255.033 196.224C254.389 196.224 253.754 196.159 253.129 196.028C252.504 195.907 251.902 195.729 251.323 195.496C250.754 195.263 250.217 194.983 249.713 194.656C249.209 194.329 248.761 193.965 248.369 193.564L249.475 191.758C249.568 191.627 249.69 191.52 249.839 191.436C249.988 191.343 250.147 191.296 250.315 191.296C250.548 191.296 250.8 191.394 251.071 191.59C251.342 191.777 251.664 191.987 252.037 192.22C252.41 192.453 252.844 192.668 253.339 192.864C253.843 193.051 254.445 193.144 255.145 193.144C256.218 193.144 257.049 192.892 257.637 192.388C258.225 191.875 258.519 191.142 258.519 190.19C258.519 189.658 258.384 189.224 258.113 188.888C257.852 188.552 257.502 188.272 257.063 188.048C256.624 187.815 256.125 187.619 255.565 187.46C255.005 187.301 254.436 187.129 253.857 186.942C253.278 186.755 252.709 186.531 252.149 186.27C251.589 186.009 251.09 185.668 250.651 185.248C250.212 184.828 249.858 184.305 249.587 183.68C249.326 183.045 249.195 182.266 249.195 181.342C249.195 180.605 249.34 179.886 249.629 179.186C249.928 178.486 250.357 177.865 250.917 177.324C251.477 176.783 252.168 176.349 252.989 176.022C253.81 175.695 254.753 175.532 255.817 175.532C257.012 175.532 258.113 175.719 259.121 176.092C260.129 176.465 260.988 176.988 261.697 177.66L260.759 179.438ZM274.726 196H270.946V175.756H274.726V196ZM301.547 185.85V194.04C300.52 194.796 299.423 195.351 298.257 195.706C297.099 196.051 295.858 196.224 294.533 196.224C292.881 196.224 291.383 195.967 290.039 195.454C288.704 194.941 287.561 194.227 286.609 193.312C285.666 192.397 284.938 191.305 284.425 190.036C283.911 188.767 283.655 187.381 283.655 185.878C283.655 184.357 283.902 182.961 284.397 181.692C284.891 180.423 285.591 179.331 286.497 178.416C287.411 177.501 288.517 176.792 289.815 176.288C291.112 175.784 292.568 175.532 294.183 175.532C295.004 175.532 295.769 175.597 296.479 175.728C297.197 175.859 297.86 176.041 298.467 176.274C299.083 176.498 299.643 176.773 300.147 177.1C300.651 177.427 301.113 177.786 301.533 178.178L300.455 179.886C300.287 180.157 300.067 180.325 299.797 180.39C299.526 180.446 299.232 180.376 298.915 180.18C298.607 180.003 298.299 179.825 297.991 179.648C297.683 179.471 297.337 179.317 296.955 179.186C296.581 179.055 296.157 178.948 295.681 178.864C295.214 178.78 294.673 178.738 294.057 178.738C293.058 178.738 292.153 178.906 291.341 179.242C290.538 179.578 289.852 180.059 289.283 180.684C288.713 181.309 288.275 182.061 287.967 182.938C287.659 183.815 287.505 184.795 287.505 185.878C287.505 187.035 287.668 188.071 287.995 188.986C288.331 189.891 288.797 190.661 289.395 191.296C290.001 191.921 290.729 192.402 291.579 192.738C292.428 193.065 293.375 193.228 294.421 193.228C295.167 193.228 295.835 193.149 296.423 192.99C297.011 192.831 297.585 192.617 298.145 192.346V188.678H295.597C295.354 188.678 295.163 188.613 295.023 188.482C294.892 188.342 294.827 188.174 294.827 187.978V185.85H301.547ZM327.841 175.756V196H325.909C325.61 196 325.358 195.953 325.153 195.86C324.957 195.757 324.766 195.589 324.579 195.356L314.009 181.86C314.065 182.476 314.093 183.045 314.093 183.568V196H310.775V175.756H312.749C312.908 175.756 313.043 175.765 313.155 175.784C313.276 175.793 313.379 175.821 313.463 175.868C313.556 175.905 313.645 175.966 313.729 176.05C313.813 176.125 313.906 176.227 314.009 176.358L324.621 189.91C324.593 189.583 324.57 189.261 324.551 188.944C324.532 188.627 324.523 188.333 324.523 188.062V175.756H327.841ZM361.138 179.438C361.026 179.634 360.905 179.779 360.774 179.872C360.653 179.956 360.499 179.998 360.312 179.998C360.116 179.998 359.901 179.928 359.668 179.788C359.444 179.639 359.173 179.475 358.856 179.298C358.539 179.121 358.165 178.962 357.736 178.822C357.316 178.673 356.817 178.598 356.238 178.598C355.715 178.598 355.258 178.663 354.866 178.794C354.474 178.915 354.143 179.088 353.872 179.312C353.611 179.536 353.415 179.807 353.284 180.124C353.153 180.432 353.088 180.773 353.088 181.146C353.088 181.622 353.219 182.019 353.48 182.336C353.751 182.653 354.105 182.924 354.544 183.148C354.983 183.372 355.482 183.573 356.042 183.75C356.602 183.927 357.176 184.119 357.764 184.324C358.352 184.52 358.926 184.753 359.486 185.024C360.046 185.285 360.545 185.621 360.984 186.032C361.423 186.433 361.773 186.928 362.034 187.516C362.305 188.104 362.44 188.818 362.44 189.658C362.44 190.573 362.281 191.431 361.964 192.234C361.656 193.027 361.199 193.723 360.592 194.32C359.995 194.908 359.262 195.375 358.394 195.72C357.526 196.056 356.532 196.224 355.412 196.224C354.768 196.224 354.133 196.159 353.508 196.028C352.883 195.907 352.281 195.729 351.702 195.496C351.133 195.263 350.596 194.983 350.092 194.656C349.588 194.329 349.14 193.965 348.748 193.564L349.854 191.758C349.947 191.627 350.069 191.52 350.218 191.436C350.367 191.343 350.526 191.296 350.694 191.296C350.927 191.296 351.179 191.394 351.45 191.59C351.721 191.777 352.043 191.987 352.416 192.22C352.789 192.453 353.223 192.668 353.718 192.864C354.222 193.051 354.824 193.144 355.524 193.144C356.597 193.144 357.428 192.892 358.016 192.388C358.604 191.875 358.898 191.142 358.898 190.19C358.898 189.658 358.763 189.224 358.492 188.888C358.231 188.552 357.881 188.272 357.442 188.048C357.003 187.815 356.504 187.619 355.944 187.46C355.384 187.301 354.815 187.129 354.236 186.942C353.657 186.755 353.088 186.531 352.528 186.27C351.968 186.009 351.469 185.668 351.03 185.248C350.591 184.828 350.237 184.305 349.966 183.68C349.705 183.045 349.574 182.266 349.574 181.342C349.574 180.605 349.719 179.886 350.008 179.186C350.307 178.486 350.736 177.865 351.296 177.324C351.856 176.783 352.547 176.349 353.368 176.022C354.189 175.695 355.132 175.532 356.196 175.532C357.391 175.532 358.492 175.719 359.5 176.092C360.508 176.465 361.367 176.988 362.076 177.66L361.138 179.438ZM379.554 188.16V196H375.802V188.16L368.424 175.756H371.742C372.069 175.756 372.326 175.835 372.512 175.994C372.708 176.153 372.872 176.353 373.002 176.596L376.698 183.358C376.913 183.759 377.1 184.137 377.258 184.492C377.426 184.847 377.576 185.201 377.706 185.556C377.828 185.201 377.968 184.847 378.126 184.492C378.285 184.137 378.467 183.759 378.672 183.358L382.354 176.596C382.457 176.391 382.611 176.199 382.816 176.022C383.022 175.845 383.283 175.756 383.6 175.756H386.932L379.554 188.16ZM404.658 179.438C404.546 179.634 404.425 179.779 404.294 179.872C404.173 179.956 404.019 179.998 403.832 179.998C403.636 179.998 403.422 179.928 403.188 179.788C402.964 179.639 402.694 179.475 402.376 179.298C402.059 179.121 401.686 178.962 401.256 178.822C400.836 178.673 400.337 178.598 399.758 178.598C399.236 178.598 398.778 178.663 398.386 178.794C397.994 178.915 397.663 179.088 397.392 179.312C397.131 179.536 396.935 179.807 396.804 180.124C396.674 180.432 396.608 180.773 396.608 181.146C396.608 181.622 396.739 182.019 397 182.336C397.271 182.653 397.626 182.924 398.064 183.148C398.503 183.372 399.002 183.573 399.562 183.75C400.122 183.927 400.696 184.119 401.284 184.324C401.872 184.52 402.446 184.753 403.006 185.024C403.566 185.285 404.066 185.621 404.504 186.032C404.943 186.433 405.293 186.928 405.554 187.516C405.825 188.104 405.96 188.818 405.96 189.658C405.96 190.573 405.802 191.431 405.484 192.234C405.176 193.027 404.719 193.723 404.112 194.32C403.515 194.908 402.782 195.375 401.914 195.72C401.046 196.056 400.052 196.224 398.932 196.224C398.288 196.224 397.654 196.159 397.028 196.028C396.403 195.907 395.801 195.729 395.222 195.496C394.653 195.263 394.116 194.983 393.612 194.656C393.108 194.329 392.66 193.965 392.268 193.564L393.374 191.758C393.468 191.627 393.589 191.52 393.738 191.436C393.888 191.343 394.046 191.296 394.214 191.296C394.448 191.296 394.7 191.394 394.97 191.59C395.241 191.777 395.563 191.987 395.936 192.22C396.31 192.453 396.744 192.668 397.238 192.864C397.742 193.051 398.344 193.144 399.044 193.144C400.118 193.144 400.948 192.892 401.536 192.388C402.124 191.875 402.418 191.142 402.418 190.19C402.418 189.658 402.283 189.224 402.012 188.888C401.751 188.552 401.401 188.272 400.962 188.048C400.524 187.815 400.024 187.619 399.464 187.46C398.904 187.301 398.335 187.129 397.756 186.942C397.178 186.755 396.608 186.531 396.048 186.27C395.488 186.009 394.989 185.668 394.55 185.248C394.112 184.828 393.757 184.305 393.486 183.68C393.225 183.045 393.094 182.266 393.094 181.342C393.094 180.605 393.239 179.886 393.528 179.186C393.827 178.486 394.256 177.865 394.816 177.324C395.376 176.783 396.067 176.349 396.888 176.022C397.71 175.695 398.652 175.532 399.716 175.532C400.911 175.532 402.012 175.719 403.02 176.092C404.028 176.465 404.887 176.988 405.596 177.66L404.658 179.438ZM428.985 178.85H422.881V196H419.115V178.85H413.011V175.756H428.985V178.85ZM441.014 178.752V184.366H448.098V187.264H441.014V192.99H450.002V196H437.234V175.756H450.002V178.752H441.014ZM480.892 175.756V196H477.574V182.924C477.574 182.401 477.602 181.837 477.658 181.23L471.54 192.724C471.251 193.275 470.807 193.55 470.21 193.55H469.678C469.081 193.55 468.637 193.275 468.348 192.724L462.16 181.188C462.188 181.496 462.211 181.799 462.23 182.098C462.249 182.397 462.258 182.672 462.258 182.924V196H458.94V175.756H461.782C461.95 175.756 462.095 175.761 462.216 175.77C462.337 175.779 462.445 175.803 462.538 175.84C462.641 175.877 462.729 175.938 462.804 176.022C462.888 176.106 462.967 176.218 463.042 176.358L469.104 187.6C469.263 187.899 469.407 188.207 469.538 188.524C469.678 188.841 469.813 189.168 469.944 189.504C470.075 189.159 470.21 188.827 470.35 188.51C470.49 188.183 470.639 187.871 470.798 187.572L476.776 176.358C476.851 176.218 476.93 176.106 477.014 176.022C477.098 175.938 477.187 175.877 477.28 175.84C477.383 175.803 477.495 175.779 477.616 175.77C477.737 175.761 477.882 175.756 478.05 175.756H480.892Z" fill="white"/>
<defs>
<clipPath id="clip0_683_5993">
<rect width="570" height="124" fill="white"/>
</clipPath>
</defs>
</svg>
